<svg width="88" height="89" viewBox="0 0 88 89" fill="none" xmlns="http://www.w3.org/2000/svg">
<rect x="1.91304" y="2.16304" width="84.1739" height="84.1739" rx="42.087" fill="white" fill-opacity="0.3"/>
<path d="M35.1463 30.6958C34.5804 30.6958 34.2975 30.4129 34.2975 29.847V25.6528C34.2975 25.0537 34.5804 24.7541 35.1463 24.7541H38.8911C39.1574 24.7541 39.3571 24.8373 39.4902 25.0037C39.6234 25.1702 39.69 25.3865 39.69 25.6528V29.847C39.69 30.4129 39.4237 30.6958 38.8911 30.6958H35.1463ZM34.4972 73.7359V35.1896H39.4902V61.2532C39.4902 63.55 39.3737 65.8136 39.1407 68.0438C38.9077 70.3073 38.6081 72.2047 38.242 73.7359H34.4972ZM55.1801 61.9523C53.549 61.9523 52.1676 61.6693 51.0359 61.1035C49.9374 60.5376 49.1052 59.6388 48.5394 58.4072C48.0068 57.1423 47.7405 55.4447 47.7405 53.3143V23.8054H52.7335V52.6652C52.7335 54.0633 52.8667 55.1451 53.133 55.9107C53.4325 56.643 53.832 57.159 54.3313 57.4585C54.8639 57.7581 55.4797 57.9578 56.1787 58.0577L58.6752 58.3573V61.9523H55.1801Z" fill="#1E293B"/>
<rect x="1.91304" y="2.16304" width="84.1739" height="84.1739" rx="42.087" stroke="url(#paint0_linear_221_51536)" stroke-width="3.82609"/>
<defs>
<linearGradient id="paint0_linear_221_51536" x1="44" y1="0.25" x2="44" y2="88.25" gradientUnits="userSpaceOnUse">
<stop stop-color="white" stop-opacity="0.2"/>
<stop offset="1" stop-color="white"/>
<stop offset="1" stop-color="white"/>
</linearGradient>
</defs>
</svg>
