<svg width="31" height="30" viewBox="0 0 31 30" fill="none" xmlns="http://www.w3.org/2000/svg">
<path d="M22.4463 20.8211L17.1425 26.1249C16.6737 26.5932 16.0382 26.8562 15.3756 26.8562C14.713 26.8562 14.0775 26.5932 13.6088 26.1249L8.30375 20.8211C6.90528 19.4226 5.95292 17.6408 5.56711 15.701C5.1813 13.7612 5.37937 11.7505 6.13626 9.92329C6.89315 8.09606 8.17488 6.5343 9.81936 5.43551C11.4638 4.33672 13.3972 3.75024 15.375 3.75024C17.3528 3.75024 19.2862 4.33672 20.9307 5.43551C22.5751 6.5343 23.8569 8.09606 24.6138 9.92329C25.3706 11.7505 25.5687 13.7612 25.1829 15.701C24.7971 17.6408 23.8447 19.4226 22.4463 20.8211Z" stroke="#8F1919" stroke-width="2" stroke-linecap="round" stroke-linejoin="round"/>
<path d="M11.625 13.75C11.625 14.7446 12.0201 15.6984 12.7233 16.4017C13.4266 17.1049 14.3804 17.5 15.375 17.5C16.3696 17.5 17.3234 17.1049 18.0267 16.4017C18.7299 15.6984 19.125 14.7446 19.125 13.75C19.125 12.7554 18.7299 11.8016 18.0267 11.0983C17.3234 10.3951 16.3696 10 15.375 10C14.3804 10 13.4266 10.3951 12.7233 11.0983C12.0201 11.8016 11.625 12.7554 11.625 13.75Z" stroke="#8F1919" stroke-width="2" stroke-linecap="round" stroke-linejoin="round"/>
</svg>
