<svg width="223" height="126" viewBox="0 0 223 126" fill="none" xmlns="http://www.w3.org/2000/svg">
<g clip-path="url(#clip0_114_30277)">
<path d="M49.1836 44.7729H163.353V65.821H49.1836V44.7729Z" fill="white"/>
<path fill-rule="evenodd" clip-rule="evenodd" d="M162.353 45.7729H50.1836V64.821H162.353V45.7729ZM49.1836 44.7729V65.821H163.353V44.7729H49.1836Z" fill="#747474"/>
<path d="M160.164 46.6865H51.7354V63.9076H160.164V46.6865Z" fill="#747474"/>
<path d="M89.0473 33.292L49.1836 44.7728H106.587L89.0473 33.292Z" fill="#747474"/>
<path d="M87.4527 34.249L49.1836 44.773H68.6371L87.4527 34.249Z" fill="#D2D0DE"/>
<path d="M123.489 33.292L163.353 44.7728H105.949L123.489 33.292Z" fill="#747474"/>
<path d="M125.084 34.249L163.353 44.773H143.9L125.084 34.249Z" fill="#D2D0DE"/>
<path d="M123.489 77.3016L163.353 65.8208H105.949L123.489 77.3016Z" fill="#747474"/>
<path d="M125.084 76.3448L163.353 65.8208H143.9L125.084 76.3448Z" fill="#D2D0DE"/>
<path d="M89.0473 77.3016L49.1836 65.8208H106.587L89.0473 77.3016Z" fill="#747474"/>
<path d="M87.4528 76.3448L49.1836 65.8208H68.6371L87.4528 76.3448Z" fill="#D2D0DE"/>
<path d="M62.9858 49.5664V57.3318C62.9858 58.6219 62.5809 59.6422 61.7712 60.3925C60.9669 61.1429 59.8657 61.5181 58.4675 61.5181C57.091 61.5181 55.9978 61.1537 55.1881 60.4249C54.3784 59.6962 53.9654 58.6948 53.9492 57.4208V49.5664H56.3784V57.3479C56.3784 58.1199 56.5619 58.684 56.929 59.0403C57.3015 59.3912 57.8143 59.5666 58.4675 59.5666C59.8333 59.5666 60.5269 58.8486 60.5485 57.4127V49.5664H62.9858Z" fill="white"/>
<path d="M74.7317 61.3561H72.3025L67.5737 53.5989V61.3561H65.1445V49.5664H67.5737L72.3106 57.3398V49.5664H74.7317V61.3561Z" fill="white"/>
<path d="M79.6021 61.3561H77.1729V49.5664H79.6021V61.3561Z" fill="white"/>
<path d="M86.4231 57.251H81.8643V55.3643H86.4231V57.251Z" fill="white"/>
<path d="M91.0513 57.2022V61.3561H88.6221V49.5664H93.2213C94.1066 49.5664 94.884 49.7284 95.5534 50.0523C96.2281 50.3762 96.7464 50.8377 97.108 51.4369C97.4697 52.0307 97.6506 52.7082 97.6506 53.4693C97.6506 54.6245 97.2538 55.5368 96.4603 56.2062C95.6721 56.8702 94.579 57.2022 93.1808 57.2022H91.0513ZM91.0513 55.2345H93.2213C93.8637 55.2345 94.3523 55.0834 94.6869 54.7811C95.027 54.4788 95.1971 54.0469 95.1971 53.4855C95.1971 52.9079 95.027 52.441 94.6869 52.0847C94.3469 51.7284 93.8772 51.5449 93.278 51.5341H91.0513V55.2345Z" fill="white"/>
<path d="M109.088 61.3561H106.658V56.3034H101.921V61.3561H99.4922V49.5664H101.921V54.3438H106.658V49.5664H109.088V61.3561Z" fill="white"/>
<path d="M118.185 58.9269H113.926L113.116 61.3561H110.533L114.922 49.5664H117.173L121.586 61.3561H119.003L118.185 58.9269ZM114.582 56.9593H117.529L116.047 52.5462L114.582 56.9593Z" fill="white"/>
<path d="M127.217 57.0402H125.282V61.3561H122.853V49.5664H127.233C128.626 49.5664 129.7 49.8768 130.456 50.4976C131.212 51.1184 131.59 51.9956 131.59 53.1292C131.59 53.9336 131.414 54.6057 131.063 55.1455C130.718 55.6799 130.191 56.1064 129.484 56.4249L132.035 61.2428V61.3561H129.428L127.217 57.0402ZM125.282 55.0726H127.241C127.851 55.0726 128.324 54.9188 128.658 54.6111C128.993 54.298 129.16 53.8688 129.16 53.3236C129.16 52.7676 129.001 52.3303 128.683 52.0118C128.369 51.6933 127.886 51.5341 127.233 51.5341H125.282V55.0726Z" fill="white"/>
<path d="M136.784 49.5664L139.812 58.1172L142.825 49.5664H146.015V61.3561H143.578V58.1334L143.82 52.5705L140.638 61.3561H138.97L135.796 52.5786L136.039 58.1334V61.3561H133.609V49.5664H136.784Z" fill="white"/>
<path d="M155.104 58.9269H150.845L150.035 61.3561H147.452L151.841 49.5664H154.092L158.505 61.3561H155.922L155.104 58.9269ZM151.501 56.9593H154.448L152.966 52.5462L151.501 56.9593Z" fill="white"/>
<path d="M37.7979 90.8505V93.247H36.3965V86.4453H39.0499C39.5607 86.4453 40.0091 86.5387 40.3953 86.7256C40.7846 86.9125 41.0836 87.1787 41.2922 87.5244C41.5009 87.867 41.6052 88.2579 41.6052 88.697C41.6052 89.3634 41.3763 89.8898 40.9185 90.276C40.4638 90.659 39.8332 90.8505 39.0266 90.8505H37.7979ZM37.7979 89.7154H39.0499C39.4205 89.7154 39.7024 89.6282 39.8955 89.4538C40.0917 89.2794 40.1898 89.0302 40.1898 88.7063C40.1898 88.3731 40.0917 88.1037 39.8955 87.8981C39.6993 87.6926 39.4283 87.5867 39.0826 87.5805H37.7979V89.7154Z" fill="#232323"/>
<path d="M43.9673 88.7439C44.3254 88.3141 44.7754 88.0992 45.3173 88.0992C46.4136 88.0992 46.9695 88.7361 46.985 90.0099V93.2472H45.635V90.0472C45.635 89.7576 45.5727 89.5443 45.4481 89.4072C45.3236 89.2671 45.1164 89.197 44.8268 89.197C44.4313 89.197 44.1448 89.3496 43.9673 89.6548V93.2472H42.6172V86.0718H43.9673V88.7439Z" fill="#232323"/>
<path d="M51.0977 93.2471C51.0354 93.1257 50.9903 92.9746 50.9622 92.794C50.6352 93.1584 50.2101 93.3406 49.6869 93.3406C49.1917 93.3406 48.7806 93.1973 48.4536 92.9108C48.1297 92.6243 47.9678 92.263 47.9678 91.827C47.9678 91.2913 48.1656 90.8802 48.5611 90.5937C48.9597 90.3072 49.5343 90.1624 50.2849 90.1593H50.9062V89.8696C50.9062 89.6361 50.8455 89.4492 50.724 89.309C50.6056 89.1689 50.4172 89.0988 50.1587 89.0988C49.9314 89.0988 49.7523 89.1533 49.6215 89.2623C49.4938 89.3713 49.43 89.5208 49.43 89.7108H48.0799C48.0799 89.418 48.1702 89.1471 48.3509 88.898C48.5315 88.6488 48.7869 88.4542 49.117 88.314C49.4471 88.1707 49.8177 88.0991 50.2288 88.0991C50.8517 88.0991 51.3453 88.2564 51.7097 88.5709C52.0772 88.8824 52.2609 89.3215 52.2609 89.8883V92.0793C52.264 92.5589 52.331 92.9217 52.4618 93.1677V93.2471H51.0977ZM49.9812 92.3082C50.1805 92.3082 50.3643 92.2646 50.5325 92.1774C50.7006 92.087 50.8252 91.9671 50.9062 91.8177V90.9488H50.4017C49.7258 90.9488 49.3661 91.1823 49.3225 91.6495L49.3179 91.7289C49.3179 91.8971 49.377 92.0357 49.4954 92.1447C49.6137 92.2537 49.7757 92.3082 49.9812 92.3082Z" fill="#232323"/>
<path d="M56.3042 89.4585C56.1205 89.4336 55.9585 89.4212 55.8184 89.4212C55.3076 89.4212 54.9728 89.594 54.814 89.9397V93.2471H53.4639V88.1926H54.7393L54.7766 88.7952C55.0476 88.3311 55.4229 88.0991 55.9025 88.0991C56.052 88.0991 56.1921 88.1194 56.3229 88.1598L56.3042 89.4585Z" fill="#232323"/>
<path d="M58.39 88.1926L58.432 88.7578C58.7902 88.3187 59.2744 88.0991 59.8848 88.0991C60.5357 88.0991 60.9827 88.3561 61.2256 88.8699C61.5806 88.3561 62.0867 88.0991 62.7438 88.0991C63.2919 88.0991 63.6999 88.2595 63.9678 88.5803C64.2356 88.898 64.3695 89.3776 64.3695 90.0191V93.2471H63.0148V90.0238C63.0148 89.7373 62.9587 89.5286 62.8466 89.3978C62.7345 89.2639 62.5367 89.1969 62.2533 89.1969C61.8484 89.1969 61.5682 89.39 61.4124 89.7762L61.4171 93.2471H60.067V90.0285C60.067 89.7357 60.0094 89.5239 59.8942 89.3931C59.779 89.2623 59.5828 89.1969 59.3056 89.1969C58.9225 89.1969 58.6453 89.3558 58.474 89.6734V93.2471H57.124V88.1926H58.39Z" fill="#232323"/>
<path d="M68.5069 93.2471C68.4447 93.1257 68.3995 92.9746 68.3715 92.794C68.0445 93.1584 67.6194 93.3406 67.0961 93.3406C66.601 93.3406 66.1899 93.1973 65.8629 92.9108C65.539 92.6243 65.377 92.263 65.377 91.827C65.377 91.2913 65.5748 90.8802 65.9703 90.5937C66.3689 90.3072 66.9435 90.1624 67.6941 90.1593H68.3154V89.8696C68.3154 89.6361 68.2547 89.4492 68.1332 89.309C68.0149 89.1689 67.8265 89.0988 67.568 89.0988C67.3406 89.0988 67.1615 89.1533 67.0307 89.2623C66.903 89.3713 66.8392 89.5208 66.8392 89.7108H65.4891C65.4891 89.418 65.5795 89.1471 65.7601 88.898C65.9407 88.6488 66.1961 88.4542 66.5262 88.314C66.8563 88.1707 67.2269 88.0991 67.638 88.0991C68.2609 88.0991 68.7545 88.2564 69.1189 88.5709C69.4864 88.8824 69.6702 89.3215 69.6702 89.8883V92.0793C69.6733 92.5589 69.7402 92.9217 69.871 93.1677V93.2471H68.5069ZM67.3904 92.3082C67.5898 92.3082 67.7735 92.2646 67.9417 92.1774C68.1099 92.087 68.2344 91.9671 68.3154 91.8177V90.9488H67.8109C67.1351 90.9488 66.7754 91.1823 66.7318 91.6495L66.7271 91.7289C66.7271 91.8971 66.7863 92.0357 66.9046 92.1447C67.023 92.2537 67.1849 92.3082 67.3904 92.3082Z" fill="#232323"/>
<path d="M72.9746 92.2521C73.2237 92.2521 73.4261 92.1836 73.5819 92.0466C73.7376 91.9095 73.8185 91.7273 73.8248 91.5H75.0908C75.0876 91.8426 74.9942 92.1571 74.8105 92.4436C74.6267 92.727 74.3744 92.9482 74.0537 93.107C73.736 93.2627 73.3841 93.3406 72.9979 93.3406C72.2754 93.3406 71.7055 93.1117 71.2881 92.6539C70.8708 92.1929 70.6621 91.5576 70.6621 90.7479V90.6591C70.6621 89.8805 70.8692 89.2592 71.2835 88.7952C71.6977 88.3311 72.266 88.0991 72.9886 88.0991C73.6208 88.0991 74.1269 88.2798 74.5068 88.641C74.8899 88.9992 75.0845 89.4772 75.0908 90.0752H73.8248C73.8185 89.8136 73.7376 89.6018 73.5819 89.4398C73.4261 89.2748 73.2206 89.1923 72.9652 89.1923C72.6507 89.1923 72.4124 89.3075 72.2505 89.5379C72.0916 89.7653 72.0122 90.1359 72.0122 90.6498V90.7899C72.0122 91.31 72.0916 91.6837 72.2505 91.9111C72.4093 92.1384 72.6507 92.2521 72.9746 92.2521Z" fill="#232323"/>
<path d="M78.3543 93.3406C77.6131 93.3406 77.0089 93.1132 76.5418 92.6585C76.0777 92.2038 75.8457 91.5981 75.8457 90.8413V90.7105C75.8457 90.2029 75.9438 89.7497 76.14 89.3511C76.3362 88.9493 76.6134 88.641 76.9715 88.4261C77.3328 88.2081 77.7439 88.0991 78.2048 88.0991C78.8962 88.0991 79.4397 88.3171 79.8352 88.7531C80.2338 89.1891 80.4331 89.8073 80.4331 90.6077V91.159H77.2145C77.2581 91.4891 77.3889 91.7538 77.6069 91.9531C77.828 92.1524 78.1067 92.2521 78.4431 92.2521C78.9632 92.2521 79.3696 92.0637 79.6623 91.6869L80.3257 92.4296C80.1233 92.7161 79.8492 92.9404 79.5035 93.1023C79.1578 93.2612 78.7747 93.3406 78.3543 93.3406ZM78.2001 89.1923C77.9323 89.1923 77.7143 89.2826 77.5461 89.4632C77.3811 89.6438 77.2752 89.9023 77.2285 90.2387H79.1064V90.1312C79.1002 89.8323 79.0192 89.6018 78.8635 89.4398C78.7078 89.2748 78.4867 89.1923 78.2001 89.1923Z" fill="#232323"/>
<path d="M84.3967 92.7336C84.0635 93.1384 83.6026 93.3409 83.0139 93.3409C82.4721 93.3409 82.0578 93.1852 81.7713 92.8737C81.4879 92.5623 81.3431 92.106 81.3369 91.505V88.1929H82.6869V91.4582C82.6869 91.9846 82.9267 92.2477 83.4064 92.2477C83.8642 92.2477 84.1787 92.0889 84.35 91.7712V88.1929H85.7047V93.2474H84.4341L84.3967 92.7336Z" fill="#232323"/>
<path d="M88.5052 86.9502V88.1929H89.3694V89.1832H88.5052V91.7058C88.5052 91.8927 88.541 92.0266 88.6127 92.1076C88.6843 92.1886 88.8213 92.229 89.0238 92.229C89.1732 92.229 89.3056 92.2181 89.4208 92.1963V93.2194C89.1561 93.3004 88.8836 93.3409 88.6033 93.3409C87.6566 93.3409 87.1738 92.8628 87.1551 91.9067V89.1832H86.417V88.1929H87.1551V86.9502H88.5052Z" fill="#232323"/>
<path d="M91.7124 93.2471H90.3577V88.1926H91.7124V93.2471ZM90.2783 86.8845C90.2783 86.6821 90.3452 86.5155 90.4791 86.3847C90.6162 86.2539 90.8015 86.1885 91.035 86.1885C91.2655 86.1885 91.4493 86.2539 91.5863 86.3847C91.7233 86.5155 91.7918 86.6821 91.7918 86.8845C91.7918 87.0901 91.7218 87.2582 91.5816 87.389C91.4446 87.5199 91.2624 87.5853 91.035 87.5853C90.8077 87.5853 90.6239 87.5199 90.4838 87.389C90.3468 87.2582 90.2783 87.0901 90.2783 86.8845Z" fill="#232323"/>
<path d="M95.0966 92.2521C95.3458 92.2521 95.5482 92.1836 95.7039 92.0466C95.8596 91.9095 95.9406 91.7273 95.9468 91.5H97.2128C97.2097 91.8426 97.1163 92.1571 96.9325 92.4436C96.7488 92.727 96.4965 92.9482 96.1758 93.107C95.8581 93.2627 95.5062 93.3406 95.12 93.3406C94.3975 93.3406 93.8275 93.1117 93.4102 92.6539C92.9929 92.1929 92.7842 91.5576 92.7842 90.7479V90.6591C92.7842 89.8805 92.9913 89.2592 93.4055 88.7952C93.8197 88.3311 94.3881 88.0991 95.1106 88.0991C95.7429 88.0991 96.2489 88.2798 96.6289 88.641C97.012 88.9992 97.2066 89.4772 97.2128 90.0752H95.9468C95.9406 89.8136 95.8596 89.6018 95.7039 89.4398C95.5482 89.2748 95.3427 89.1923 95.0873 89.1923C94.7727 89.1923 94.5345 89.3075 94.3725 89.5379C94.2137 89.7653 94.1343 90.1359 94.1343 90.6498V90.7899C94.1343 91.31 94.2137 91.6837 94.3725 91.9111C94.5314 92.1384 94.7727 92.2521 95.0966 92.2521Z" fill="#232323"/>
<path d="M101.078 93.2471C101.016 93.1257 100.971 92.9746 100.943 92.794C100.616 93.1584 100.191 93.3406 99.6673 93.3406C99.1721 93.3406 98.761 93.1973 98.434 92.9108C98.1101 92.6243 97.9482 92.263 97.9482 91.827C97.9482 91.2913 98.146 90.8802 98.5415 90.5937C98.9401 90.3072 99.5147 90.1624 100.265 90.1593H100.887V89.8696C100.887 89.6361 100.826 89.4492 100.704 89.309C100.586 89.1689 100.398 89.0988 100.139 89.0988C99.9118 89.0988 99.7327 89.1533 99.6019 89.2623C99.4742 89.3713 99.4104 89.5208 99.4104 89.7108H98.0603C98.0603 89.418 98.1506 89.1471 98.3313 88.898C98.5119 88.6488 98.7673 88.4542 99.0974 88.314C99.4275 88.1707 99.7981 88.0991 100.209 88.0991C100.832 88.0991 101.326 88.2564 101.69 88.5709C102.058 88.8824 102.241 89.3215 102.241 89.8883V92.0793C102.244 92.5589 102.311 92.9217 102.442 93.1677V93.2471H101.078ZM99.9616 92.3082C100.161 92.3082 100.345 92.2646 100.513 92.1774C100.681 92.087 100.806 91.9671 100.887 91.8177V90.9488H100.382C99.7062 90.9488 99.3465 91.1823 99.3029 91.6495L99.2983 91.7289C99.2983 91.8971 99.3574 92.0357 99.4758 92.1447C99.5941 92.2537 99.7561 92.3082 99.9616 92.3082Z" fill="#232323"/>
<path d="M104.869 93.2472H103.515V86.0718H104.869V93.2472Z" fill="#232323"/>
<path d="M110.191 92.1212H113.166V93.247H108.789V86.4453H110.191V92.1212Z" fill="#232323"/>
<path d="M116.981 93.2471C116.918 93.1257 116.873 92.9746 116.845 92.794C116.518 93.1584 116.093 93.3406 115.57 93.3406C115.075 93.3406 114.663 93.1973 114.336 92.9108C114.013 92.6243 113.851 92.263 113.851 91.827C113.851 91.2913 114.048 90.8802 114.444 90.5937C114.843 90.3072 115.417 90.1624 116.168 90.1593H116.789V89.8696C116.789 89.6361 116.728 89.4492 116.607 89.309C116.488 89.1689 116.3 89.0988 116.042 89.0988C115.814 89.0988 115.635 89.1533 115.504 89.2623C115.377 89.3713 115.313 89.5208 115.313 89.7108H113.963C113.963 89.418 114.053 89.1471 114.234 88.898C114.414 88.6488 114.67 88.4542 115 88.314C115.33 88.1707 115.701 88.0991 116.112 88.0991C116.734 88.0991 117.228 88.2564 117.592 88.5709C117.96 88.8824 118.144 89.3215 118.144 89.8883V92.0793C118.147 92.5589 118.214 92.9217 118.345 93.1677V93.2471H116.981ZM115.864 92.3082C116.063 92.3082 116.247 92.2646 116.415 92.1774C116.583 92.087 116.708 91.9671 116.789 91.8177V90.9488H116.284C115.609 90.9488 115.249 91.1823 115.205 91.6495L115.201 91.7289C115.201 91.8971 115.26 92.0357 115.378 92.1447C115.497 92.2537 115.658 92.3082 115.864 92.3082Z" fill="#232323"/>
<path d="M123.901 90.7667C123.901 91.5764 123.729 92.2086 123.383 92.6633C123.037 93.1149 122.554 93.3407 121.935 93.3407C121.387 93.3407 120.949 93.1305 120.622 92.71L120.561 93.2472H119.347V86.0718H120.697V88.6458C121.008 88.2814 121.418 88.0992 121.925 88.0992C122.542 88.0992 123.025 88.3266 123.373 88.7813C123.725 89.2328 123.901 89.8697 123.901 90.6919V90.7667ZM122.551 90.6686C122.551 90.1578 122.47 89.7856 122.308 89.5521C122.146 89.3154 121.905 89.197 121.584 89.197C121.155 89.197 120.859 89.373 120.697 89.7249V91.7197C120.862 92.0747 121.161 92.2522 121.594 92.2522C122.03 92.2522 122.316 92.0373 122.453 91.6075C122.519 91.402 122.551 91.089 122.551 90.6686Z" fill="#232323"/>
<path d="M124.693 90.6731C124.693 90.1717 124.79 89.7248 124.983 89.3324C125.176 88.94 125.453 88.6363 125.815 88.4215C126.179 88.2066 126.601 88.0991 127.081 88.0991C127.763 88.0991 128.318 88.3078 128.748 88.7251C129.181 89.1424 129.423 89.7092 129.472 90.4255L129.482 90.7712C129.482 91.5467 129.265 92.1696 128.832 92.6398C128.399 93.107 127.819 93.3406 127.09 93.3406C126.361 93.3406 125.779 93.107 125.343 92.6398C124.91 92.1727 124.693 91.5374 124.693 90.7339V90.6731ZM126.043 90.7712C126.043 91.2508 126.134 91.6183 126.314 91.8737C126.495 92.126 126.754 92.2521 127.09 92.2521C127.417 92.2521 127.672 92.1275 127.856 91.8784C128.04 91.6261 128.132 91.2244 128.132 90.6731C128.132 90.2029 128.04 89.8385 127.856 89.58C127.672 89.3215 127.414 89.1923 127.081 89.1923C126.75 89.1923 126.495 89.3215 126.314 89.58C126.134 89.8354 126.043 90.2324 126.043 90.7712Z" fill="#232323"/>
<path d="M133.319 89.4585C133.135 89.4336 132.973 89.4212 132.833 89.4212C132.322 89.4212 131.987 89.594 131.829 89.9397V93.2471H130.479V88.1926H131.754L131.791 88.7952C132.062 88.3311 132.438 88.0991 132.917 88.0991C133.067 88.0991 133.207 88.1194 133.338 88.1598L133.319 89.4585Z" fill="#232323"/>
<path d="M136.928 93.2471C136.866 93.1257 136.82 92.9746 136.792 92.794C136.465 93.1584 136.04 93.3406 135.517 93.3406C135.022 93.3406 134.611 93.1973 134.284 92.9108C133.96 92.6243 133.798 92.263 133.798 91.827C133.798 91.2913 133.996 90.8802 134.391 90.5937C134.79 90.3072 135.364 90.1624 136.115 90.1593H136.736V89.8696C136.736 89.6361 136.676 89.4492 136.554 89.309C136.436 89.1689 136.247 89.0988 135.989 89.0988C135.762 89.0988 135.582 89.1533 135.452 89.2623C135.324 89.3713 135.26 89.5208 135.26 89.7108H133.91C133.91 89.418 134 89.1471 134.181 88.898C134.362 88.6488 134.617 88.4542 134.947 88.314C135.277 88.1707 135.648 88.0991 136.059 88.0991C136.682 88.0991 137.175 88.2564 137.54 88.5709C137.907 88.8824 138.091 89.3215 138.091 89.8883V92.0793C138.094 92.5589 138.161 92.9217 138.292 93.1677V93.2471H136.928ZM135.811 92.3082C136.011 92.3082 136.194 92.2646 136.363 92.1774C136.531 92.087 136.655 91.9671 136.736 91.8177V90.9488H136.232C135.556 90.9488 135.196 91.1823 135.153 91.6495L135.148 91.7289C135.148 91.8971 135.207 92.0357 135.325 92.1447C135.444 92.2537 135.606 92.3082 135.811 92.3082Z" fill="#232323"/>
<path d="M140.91 86.9502V88.1929H141.775V89.1832H140.91V91.7058C140.91 91.8927 140.946 92.0266 141.018 92.1076C141.089 92.1886 141.226 92.229 141.429 92.229C141.578 92.229 141.711 92.2181 141.826 92.1963V93.2194C141.561 93.3004 141.289 93.3409 141.008 93.3409C140.062 93.3409 139.579 92.8628 139.56 91.9067V89.1832H138.822V88.1929H139.56V86.9502H140.91Z" fill="#232323"/>
<path d="M142.342 90.6731C142.342 90.1717 142.439 89.7248 142.632 89.3324C142.825 88.94 143.102 88.6363 143.463 88.4215C143.828 88.2066 144.25 88.0991 144.729 88.0991C145.411 88.0991 145.967 88.3078 146.397 88.7251C146.83 89.1424 147.071 89.7092 147.121 90.4255L147.13 90.7712C147.13 91.5467 146.914 92.1696 146.481 92.6398C146.048 93.107 145.467 93.3406 144.739 93.3406C144.01 93.3406 143.427 93.107 142.991 92.6398C142.559 92.1727 142.342 91.5374 142.342 90.7339V90.6731ZM143.692 90.7712C143.692 91.2508 143.783 91.6183 143.963 91.8737C144.144 92.126 144.402 92.2521 144.739 92.2521C145.066 92.2521 145.321 92.1275 145.505 91.8784C145.689 91.6261 145.78 91.2244 145.78 90.6731C145.78 90.2029 145.689 89.8385 145.505 89.58C145.321 89.3215 145.063 89.1923 144.729 89.1923C144.399 89.1923 144.144 89.3215 143.963 89.58C143.783 89.8354 143.692 90.2324 143.692 90.7712Z" fill="#232323"/>
<path d="M150.968 89.4585C150.784 89.4336 150.622 89.4212 150.482 89.4212C149.972 89.4212 149.637 89.594 149.478 89.9397V93.2471H148.128V88.1926H149.403L149.441 88.7952C149.711 88.3311 150.087 88.0991 150.566 88.0991C150.716 88.0991 150.856 88.1194 150.987 88.1598L150.968 89.4585Z" fill="#232323"/>
<path d="M153.213 93.2471H151.858V88.1926H153.213V93.2471ZM151.779 86.8845C151.779 86.6821 151.846 86.5155 151.979 86.3847C152.117 86.2539 152.302 86.1885 152.535 86.1885C152.766 86.1885 152.95 86.2539 153.087 86.3847C153.224 86.5155 153.292 86.6821 153.292 86.8845C153.292 87.0901 153.222 87.2582 153.082 87.389C152.945 87.5199 152.763 87.5853 152.535 87.5853C152.308 87.5853 152.124 87.5199 151.984 87.389C151.847 87.2582 151.779 87.0901 151.779 86.8845Z" fill="#232323"/>
<path d="M156.822 93.3406C156.08 93.3406 155.476 93.1132 155.009 92.6585C154.545 92.2038 154.313 91.5981 154.313 90.8413V90.7105C154.313 90.2029 154.411 89.7497 154.607 89.3511C154.803 88.9493 155.081 88.641 155.439 88.4261C155.8 88.2081 156.211 88.0991 156.672 88.0991C157.363 88.0991 157.907 88.3171 158.302 88.7531C158.701 89.1891 158.9 89.8073 158.9 90.6077V91.159H155.682C155.725 91.4891 155.856 91.7538 156.074 91.9531C156.295 92.1524 156.574 92.2521 156.91 92.2521C157.43 92.2521 157.837 92.0637 158.13 91.6869L158.793 92.4296C158.59 92.7161 158.316 92.9404 157.971 93.1023C157.625 93.2612 157.242 93.3406 156.822 93.3406ZM156.667 89.1923C156.4 89.1923 156.182 89.2826 156.013 89.4632C155.848 89.6438 155.742 89.9023 155.696 90.2387H157.574V90.1312C157.567 89.8323 157.486 89.6018 157.331 89.4398C157.175 89.2748 156.954 89.1923 156.667 89.1923Z" fill="#232323"/>
<path d="M162.574 91.8504C162.574 91.6853 162.492 91.556 162.327 91.4626C162.165 91.3661 161.903 91.2804 161.542 91.2057C160.34 90.9534 159.739 90.4427 159.739 89.6734C159.739 89.225 159.924 88.8512 160.295 88.5523C160.669 88.2502 161.156 88.0991 161.757 88.0991C162.399 88.0991 162.911 88.2502 163.294 88.5523C163.68 88.8543 163.873 89.2468 163.873 89.7295H162.523C162.523 89.5364 162.461 89.3776 162.336 89.253C162.212 89.1253 162.017 89.0615 161.752 89.0615C161.525 89.0615 161.349 89.1128 161.224 89.2156C161.1 89.3184 161.038 89.4492 161.038 89.608C161.038 89.7575 161.108 89.879 161.248 89.9724C161.391 90.0627 161.631 90.1421 161.967 90.2106C162.304 90.2761 162.587 90.3508 162.817 90.4349C163.531 90.6965 163.887 91.1496 163.887 91.7943C163.887 92.2552 163.689 92.6289 163.294 92.9155C162.898 93.1989 162.388 93.3406 161.762 93.3406C161.338 93.3406 160.961 93.2658 160.631 93.1163C160.304 92.9637 160.047 92.7566 159.86 92.495C159.673 92.2303 159.58 91.9453 159.58 91.6401H160.86C160.873 91.8799 160.961 92.0637 161.126 92.1914C161.291 92.3191 161.513 92.3829 161.79 92.3829C162.048 92.3829 162.243 92.3346 162.374 92.2381C162.508 92.1384 162.574 92.0092 162.574 91.8504Z" fill="#232323"/>
<path d="M171.091 91.4627C171.091 91.198 170.997 90.9956 170.81 90.8554C170.624 90.7122 170.287 90.5627 169.801 90.407C169.315 90.2481 168.931 90.0924 168.647 89.9398C167.875 89.5225 167.489 88.9602 167.489 88.2533C167.489 87.8858 167.592 87.5589 167.797 87.2724C168.006 86.9827 168.303 86.7569 168.69 86.595C169.079 86.433 169.515 86.3521 169.998 86.3521C170.483 86.3521 170.916 86.4408 171.296 86.6183C171.676 86.7927 171.97 87.0402 172.179 87.361C172.391 87.6818 172.497 88.0463 172.497 88.4543H171.095C171.095 88.1428 170.997 87.9015 170.801 87.7302C170.605 87.5558 170.329 87.4686 169.974 87.4686C169.632 87.4686 169.365 87.5417 169.175 87.688C168.985 87.8313 168.89 88.0213 168.89 88.258C168.89 88.4791 169.001 88.6644 169.222 88.8139C169.446 88.9634 169.775 89.1036 170.208 89.2344C171.005 89.4742 171.586 89.7716 171.95 90.1267C172.315 90.4817 172.497 90.9239 172.497 91.4534C172.497 92.042 172.274 92.5045 171.829 92.8408C171.383 93.1741 170.784 93.3406 170.03 93.3406C169.507 93.3406 169.031 93.2456 168.601 93.0556C168.171 92.8625 167.842 92.5995 167.615 92.2662C167.391 91.933 167.279 91.5468 167.279 91.1077H168.685C168.685 91.8582 169.133 92.2335 170.03 92.2335C170.363 92.2335 170.624 92.1666 170.81 92.0326C170.997 91.8956 171.091 91.7056 171.091 91.4627Z" fill="#232323"/>
<path d="M173.597 92.584C173.597 92.3691 173.669 92.1947 173.812 92.0608C173.958 91.9269 174.14 91.8599 174.358 91.8599C174.58 91.8599 174.762 91.9269 174.905 92.0608C175.051 92.1947 175.125 92.3691 175.125 92.584C175.125 92.7958 175.053 92.9686 174.91 93.1025C174.766 93.2333 174.583 93.2987 174.358 93.2987C174.137 93.2987 173.955 93.2333 173.812 93.1025C173.669 92.9686 173.597 92.7958 173.597 92.584Z" fill="#232323"/>
<path d="M180.406 91.8456H177.948L177.481 93.247H175.991L178.523 86.4453H179.822L182.368 93.247H180.878L180.406 91.8456ZM178.327 90.7104H180.027L179.172 88.1644L178.327 90.7104Z" fill="#232323"/>
<path d="M183.15 92.584C183.15 92.3691 183.222 92.1947 183.365 92.0608C183.511 91.9269 183.694 91.8599 183.912 91.8599C184.133 91.8599 184.315 91.9269 184.458 92.0608C184.605 92.1947 184.678 92.3691 184.678 92.584C184.678 92.7958 184.606 92.9686 184.463 93.1025C184.32 93.2333 184.136 93.2987 183.912 93.2987C183.691 93.2987 183.508 93.2333 183.365 93.1025C183.222 92.9686 183.15 92.7958 183.15 92.584Z" fill="#232323"/>
</g>
<defs>
<clipPath id="clip0_114_30277">
<rect width="150" height="61" fill="white" transform="translate(35.667 32.5625)"/>
</clipPath>
</defs>
</svg>
