<svg width="223" height="126" viewBox="0 0 223 126" fill="none" xmlns="http://www.w3.org/2000/svg">
<path d="M135.993 56.8257H126.61V59.1499H135.209V60.6561H128.336C126.948 60.7196 126.149 62.1208 126.101 63.5606V63.837C126.149 65.1304 126.806 66.4017 128.212 66.7029H138.011V58.7188C138.014 56.8257 135.993 56.8257 135.993 56.8257ZM135.194 64.2875H130.049C128.616 64.2875 128.948 62.8642 130.049 62.8642H135.194V64.2875Z" fill="#393939"/>
<path d="M153.096 56.8257H143.499C140.784 56.9528 140.329 62.2065 143.357 62.9057H150.197C151.299 62.9057 151.603 64.3262 150.146 64.3262H141.84V66.7167H151.425C154.48 66.0479 154.013 60.7943 151.31 60.6671H145.155C143.722 60.6671 143.981 59.2051 145.082 59.2051H153.096V56.8257Z" fill="#393939"/>
<path d="M53.3188 70.3647C52.4139 70.3647 52.1455 71.0529 52.1455 71.5283C52.1455 72.0036 52.4019 72.689 53.3188 72.689C54.2357 72.689 54.492 72.0008 54.492 71.5283C54.492 71.0557 54.2055 70.3647 53.3188 70.3647ZM53.3188 72.4347C52.7789 72.4347 52.4712 72.0478 52.4712 71.531C52.4712 71.0142 52.7729 70.6466 53.3188 70.6466C53.8647 70.6466 54.1392 71.0142 54.1392 71.531C54.1392 72.0478 53.8315 72.4347 53.3188 72.4347Z" fill="#757575"/>
<path d="M59.4697 72.5592H59.7985V71.5505H60.9718V71.2907H59.7985V70.6247H61.1375V70.3428H59.4697V72.5592Z" fill="#757575"/>
<path d="M66.0498 72.5399H66.3783V71.5505H67.5519V71.2686H66.3783V70.6026H67.7174V70.3428H66.0498V72.5399Z" fill="#757575"/>
<path d="M72.9251 70.3232H72.6025V72.5203H72.9251V70.3232Z" fill="#757575"/>
<path d="M79.1808 72.3881C78.5927 72.3881 78.3814 72.0012 78.3814 71.4623C78.3814 70.9234 78.7346 70.6028 79.1808 70.6028C79.3327 70.5872 79.4851 70.6251 79.6079 70.7087C79.7306 70.7923 79.8141 70.9155 79.8413 71.0533H80.1607C80.1285 70.841 80.0078 70.6485 79.8237 70.5161C79.6401 70.3837 79.4071 70.3217 79.1747 70.343C78.472 70.343 78.0469 70.7963 78.0469 71.4844C78.0469 72.3135 78.5867 72.6479 79.1264 72.6479C79.3915 72.6615 79.6521 72.5785 79.8508 72.417C80.05 72.2556 80.1708 72.0286 80.1879 71.7856H79.8594C79.8544 71.9474 79.7809 72.101 79.6541 72.2137C79.5274 72.3263 79.3573 72.3889 79.1808 72.3881Z" fill="#757575"/>
<path d="M85.5481 71.5724H86.8661V71.3127H85.5481V70.6245H86.9839V70.3647H85.2227V72.5591H87.005V72.302H85.5481V71.5724Z" fill="#757575"/>
<path d="M97.5547 72.5175H97.8837V71.5281H99.0357V71.2684H97.8837V70.5802H99.1987V70.3232H97.5547V72.5175Z" fill="#757575"/>
<path d="M113.106 72.2828L113.085 71.8821C113.061 71.5809 112.92 71.5146 112.805 71.4703C112.908 71.4173 112.993 71.3391 113.051 71.2445C113.108 71.1498 113.136 71.0424 113.131 70.9342C113.131 70.481 112.733 70.3511 112.334 70.3511H111.228V72.5482H111.557V71.6058H112.334C112.733 71.6058 112.76 71.8213 112.76 71.9927C112.762 72.1784 112.784 72.3636 112.826 72.5454H113.227V72.5012C113.185 72.4803 113.151 72.4482 113.13 72.4092C113.108 72.3702 113.1 72.3262 113.106 72.2828ZM112.31 71.3294H111.557V70.6026H112.358C112.521 70.6026 112.805 70.6247 112.805 70.9674C112.805 71.3101 112.546 71.3294 112.31 71.3294Z" fill="#757575"/>
<path d="M119.733 72.1309L118.536 70.3428H118.135V72.5592H118.467V70.7739L119.688 72.5592H120.065V70.3428H119.733V72.1309Z" fill="#757575"/>
<path d="M125.574 70.3428H125.272V72.5592H125.574V70.3428Z" fill="#757575"/>
<path d="M130.564 70.6885H131.361V72.6258H131.69V70.6885H132.513V70.4287H130.564V70.6885Z" fill="#757575"/>
<path d="M138.973 71.8299C138.985 71.9074 138.979 71.9865 138.953 72.0614C138.928 72.1363 138.885 72.2051 138.827 72.263C138.77 72.3209 138.699 72.3663 138.619 72.3961C138.54 72.4258 138.455 72.4392 138.37 72.4351C138.068 72.4351 137.767 72.3052 137.767 71.8326V70.4287H137.438V71.8824C137.431 71.9914 137.45 72.1004 137.494 72.202C137.538 72.3035 137.605 72.3953 137.691 72.4708C137.777 72.5464 137.879 72.6041 137.992 72.6399C138.104 72.6758 138.224 72.6888 138.343 72.6783C138.468 72.6928 138.595 72.6817 138.715 72.646C138.835 72.6102 138.945 72.5506 139.037 72.4714C139.129 72.3921 139.2 72.2953 139.247 72.1878C139.293 72.0802 139.313 71.9646 139.305 71.8492V70.4287H138.973V71.8299Z" fill="#757575"/>
<path d="M146.305 72.324L146.281 71.9371C146.256 71.611 146.118 71.5723 146 71.506C146.103 71.4578 146.189 71.3835 146.247 71.2919C146.306 71.2002 146.334 71.0952 146.329 70.9892C146.329 70.5166 145.927 70.3867 145.526 70.3867H144.426V72.5977H144.754V71.6552H145.526C145.927 71.6552 145.952 71.8736 145.952 72.0449C145.957 72.2307 145.98 72.4156 146.021 72.5977H146.419V72.5313C146.305 72.4954 146.305 72.4539 146.305 72.324ZM145.505 71.3982H144.754V70.6437H145.551C145.717 70.6437 146 70.6686 146 71.0113C146 71.354 145.741 71.3982 145.505 71.3982Z" fill="#757575"/>
<path d="M151.779 72.366V71.6143H153.094V71.3573H151.779V70.6885H153.212V70.4287H151.45V72.6258H153.236V72.366H151.779Z" fill="#757575"/>
<path d="M105.683 71.7216C105.695 71.8022 105.686 71.884 105.659 71.9613C105.632 72.0386 105.587 72.1095 105.526 72.1688C105.465 72.2282 105.391 72.2746 105.309 72.3048C105.227 72.335 105.138 72.3482 105.05 72.3435C104.749 72.3435 104.447 72.1943 104.447 71.7216V70.3398H104.109V71.8046C104.104 71.9133 104.124 72.0218 104.169 72.1229C104.212 72.2239 104.28 72.3152 104.365 72.3907C104.451 72.4663 104.553 72.5243 104.665 72.5609C104.776 72.5975 104.895 72.612 105.014 72.6032C105.139 72.6137 105.266 72.5999 105.385 72.5629C105.505 72.5259 105.614 72.4665 105.707 72.3885C105.8 72.3104 105.874 72.2155 105.924 72.1097C105.975 72.0039 106.001 71.8896 106 71.7742V70.3426H105.671L105.683 71.7216Z" fill="#757575"/>
<path d="M42.1602 62.9938C41.9913 62.9274 41.8073 62.2614 41.7349 62.09C41.5932 61.6147 41.3609 61.2941 41.5238 60.7331C41.6173 60.4319 40.7486 59.0528 40.821 58.8594L40.8904 58.8179H41.8314L42.2054 57.5466L42.2537 57.5024H42.4648L42.4859 57.3753C42.4859 57.3753 42.5583 56.5987 42.5794 56.5462C42.6005 56.4937 42.6518 56.4799 42.7242 56.4799C42.7966 56.4799 42.8418 56.4605 42.8418 56.4163C42.8751 56.2892 42.8751 56.1566 42.8418 56.0294C42.7996 55.8885 42.7634 55.7171 42.7634 55.5762H41.8586C42.0727 55.9658 42.2115 56.4605 41.8133 56.5241C41.6957 56.8005 41.7892 57.1293 41.6957 57.4085C41.6716 57.5135 41.4363 57.4941 41.3398 57.5356C41.2873 57.8367 41.2014 58.1321 41.0834 58.4172C40.8482 58.6106 40.3535 58.268 39.8378 58.6549C39.7443 58.7212 39.5815 58.7626 39.5362 58.8704C39.491 58.9782 39.6538 59.0639 39.6991 59.1717C39.9584 59.6249 40.5225 60.5922 40.3566 61.131C40.3113 61.3052 41.2041 63.4581 41.37 63.6488C41.4393 63.7372 41.6263 63.6929 41.7439 63.7123L42.7332 63.8671L44.6092 64.1241V63.3143C43.9796 63.2902 43.3526 63.2247 42.7332 63.1181L42.1602 62.9938Z" fill="white"/>
<path d="M27.9843 74.0156C28.1768 73.9115 28.3507 73.781 28.5001 73.6287C28.5484 73.5209 28.2889 72.573 28.3131 72.2717C28.3613 72.164 28.7142 70.5721 28.8771 70.3566C29.043 69.8177 29.7216 70.2046 30.2645 69.8398C30.5932 69.6242 33.3168 67.9246 33.3439 67.8803C33.4585 67.4713 33.2716 67.557 33.7873 67.2779C34.159 67.0822 34.5175 66.8662 34.861 66.6312H30.2766C30.2072 66.6312 28.304 67.4271 28.0205 67.5349C27.4596 67.7532 24.92 68.8283 23.0893 69.5579C22.4632 69.8375 21.8196 70.083 21.162 70.293C21.0688 70.3027 20.9747 70.3027 20.8814 70.293C20.5055 70.3348 20.144 70.4517 19.8228 70.6357C18.4385 71.2381 17.0269 71.7135 15.6667 72.3381C14.9579 72.6393 14.231 72.8549 13.5554 73.1672C13.5102 73.1893 13.0849 73.5734 12.5933 73.9962H10.9405C11.414 73.1672 11.9508 72.2524 12.1861 72.1888C12.3067 72.1667 12.3761 72.211 12.4696 72.211C12.6807 72.2303 12.916 72.211 13.1271 72.211C14.0319 71.5228 15.7119 70.8098 16.4871 70.0802C16.7705 69.8038 16.7886 69.6491 17.1898 69.4114C17.5215 69.2179 19.2588 68.8973 19.7987 68.7232C20.1275 68.6376 21.6325 67.709 23.0893 66.7887C24.3319 66.0149 25.5322 65.2162 25.9334 64.9592C26.1656 64.8072 26.425 64.6579 26.4944 64.4396C26.58 64.1318 26.7405 63.8459 26.9641 63.6032C27.1878 63.3604 27.4685 63.1674 27.7853 63.0385C28.4813 62.7855 29.2086 62.612 29.9508 62.5217C30.0366 62.5373 30.1254 62.5306 30.2072 62.5023C30.349 62.4139 32.3697 60.1118 32.7467 59.7691V59.7221L30.3339 59.139C30.2162 59.1168 28.3583 60.0233 27.8667 60.2168L25.4689 61.3223C25.2489 61.7652 25.0536 62.2181 24.8838 62.6792C25.0949 62.4636 25.3995 62.3144 25.6348 62.1265C26.0892 61.7271 26.6354 61.4259 27.2333 61.2449C27.5138 61.115 29.794 60.1035 29.8393 60.1035C29.981 60.1035 30.1921 59.8658 30.3098 59.9101C30.4274 59.9542 31.1784 60.2527 31.1542 60.3412C31.1301 60.4296 31.0396 60.471 30.9914 60.5125C30.8044 60.6866 29.7457 61.828 29.7246 61.8473C29.5828 61.933 28.0779 62.1237 26.808 62.8809C26.5145 63.0317 26.2596 63.2386 26.0609 63.4875C25.8621 63.7364 25.724 64.0215 25.6559 64.3236C25.6107 64.4949 25.3754 64.5612 25.2337 64.6469C24.5068 65.0559 23.7799 65.5092 23.0742 65.9596C22.3201 66.4543 21.5661 66.9711 20.8423 67.4437C20.5495 67.6715 20.2345 67.8741 19.9012 68.0489C19.1955 68.3253 18.2816 68.4801 17.5306 68.6956C16.9666 68.8448 16.285 68.8863 15.9321 69.3837C15.8336 69.5725 15.7154 69.752 15.5792 69.9199C15.3892 70.094 12.9703 71.6195 12.8647 71.6444C12.5631 71.6638 12.2615 71.6002 11.9599 71.6195C11.3567 71.6859 10.6931 72.7416 10.1985 73.6453V55.5767H10.1895V74.0377H44.5728V74.0156H27.9843ZM23.0983 74.0156H13.5976C13.6854 73.924 13.7791 73.8373 13.8781 73.7558C14.1616 73.5845 20.3868 71.1552 20.598 71.1304C20.7608 71.1304 20.8996 71.2188 21.0896 71.1304C21.726 70.8927 22.4076 70.6357 23.0893 70.3566C25.2759 69.475 27.6134 68.422 30.2554 67.3414C30.5571 67.3414 32.4632 67.2779 32.5809 67.4078C32.3215 67.6648 29.6673 69.5385 29.5256 69.5385C29.3838 69.5385 29.1968 69.4943 29.0128 69.4943C27.927 69.4943 27.553 71.8627 27.4113 72.5094C27.363 72.7471 27.7401 73.5624 27.6948 73.9299C27.7401 73.9299 27.7642 73.9714 27.7642 74.0156H23.0983Z" fill="white"/>
<path d="M42.7084 65.1025C41.6256 65.1468 40.5458 65.2324 40.0753 65.1247C39.8853 65.0832 39.8159 64.9312 39.6742 64.8234C39.463 64.63 37.7016 63.2095 37.584 63.2095C37.0523 63.1841 36.5193 63.1906 35.9885 63.2288C35.518 63.2952 35.6115 63.2095 35.2134 63.5521C36.079 63.8976 36.9748 64.2873 37.8676 64.5885C38.5009 64.8013 39.0408 65.0611 39.65 65.2545C39.7466 65.296 39.9336 65.296 39.8853 65.4286C39.6494 65.7518 39.3915 66.061 39.1132 66.3545C39.0408 66.6115 38.7844 66.7193 38.51 66.8713C36.3504 68.0348 34.1397 69.1513 31.956 70.2954C31.202 70.6602 30.7315 71.1577 30.1223 71.6772C30.0287 71.7657 29.9111 71.8071 29.8659 71.9122C29.7314 72.2797 29.6217 72.6544 29.5371 73.0342C29.7935 72.9264 31.6725 71.3981 32.3541 71.0306C34.3417 69.9472 36.3867 68.9993 38.3622 67.9021C38.8296 67.6423 39.4178 67.4489 39.8702 67.1476C40.0331 67.0205 40.6001 65.9869 40.8112 65.9869C41.3511 65.9869 42.0568 65.9427 42.7144 65.9206C43.0981 65.9109 43.4821 65.9256 43.8635 65.9648C44.1115 66.0438 44.3542 66.1361 44.5904 66.2412V65.1357C44.5729 65.1336 44.5568 65.1258 44.5452 65.1136C43.9336 65.0781 43.3203 65.0743 42.7084 65.1025Z" fill="white"/>
<path d="M36.6655 56.4274C36.5238 56.513 36.6897 56.8143 36.385 56.8585C34.2225 56.8999 32.1625 56.8999 30.1357 56.8585L29.6199 56.8806C29.4383 56.911 29.2722 56.9944 29.1464 57.1183C29.1042 57.1183 27.3157 58.279 27.1045 58.2983C27.1045 58.3868 24.5197 59.893 23.0871 60.7856C22.7519 60.9743 22.4305 61.183 22.125 61.4102C22.147 61.645 22.2018 61.8762 22.2878 62.0984C22.3572 62.0569 22.6377 61.8855 23.0871 61.6037C24.9662 60.4761 29.5506 57.6738 29.6199 57.6738C29.7828 57.6544 37.2295 57.5688 37.3954 57.6738L37.4195 57.6351C37.3868 57.4087 37.4032 57.1786 37.4678 56.958C37.513 56.6816 37.513 56.4053 37.5824 56.0957C37.6417 55.9122 37.729 55.7373 37.8418 55.5762H36.937C36.892 55.6423 36.8603 55.7153 36.8434 55.7917C36.741 55.9915 36.6806 56.2071 36.6655 56.4274Z" fill="white"/>
<path d="M21.8445 63.5747C21.7992 63.8171 21.7992 64.0647 21.8445 64.307L23.0902 63.478L23.8171 62.9833L24.1458 62.2095C23.7814 62.3831 23.4289 62.5769 23.0902 62.7898C22.6533 63.0212 22.2367 63.2836 21.8445 63.5747Z" fill="white"/>
<path d="M42.7612 55.5762C42.7823 55.7282 42.8065 55.8995 42.8336 56.0515C42.8669 56.1787 42.8669 56.3113 42.8336 56.4384C42.8336 56.4826 42.7612 56.502 42.716 56.502C42.6707 56.502 42.5712 56.502 42.5712 56.5683C42.5712 56.6346 42.4777 57.3974 42.4777 57.3974L42.4596 57.5107H42.2485L42.2002 57.5549L41.8262 58.8262H40.8852L40.8158 58.8677C40.7434 59.0611 41.6121 60.4401 41.5186 60.7414C41.3557 61.2941 41.588 61.623 41.7297 62.0984C41.8021 62.2697 41.9861 62.9274 42.155 63.002L42.719 63.1292C43.3307 63.231 43.9495 63.2928 44.5708 63.3143V55.5762H42.7612Z" fill="#757575"/>
<path d="M41.7198 63.7016C41.6022 63.6822 41.4183 63.7264 41.3459 63.638C41.18 63.4473 40.2872 61.2944 40.3325 61.1203C40.4983 60.5814 39.9343 59.6142 39.6749 59.1609C39.6297 59.0531 39.4879 58.9896 39.5121 58.8597C39.5362 58.7298 39.7232 58.7104 39.8137 58.6441C40.3294 58.2572 40.824 58.5999 41.0593 58.4064C41.1773 58.1213 41.2632 57.8259 41.3157 57.5248C41.4122 57.4834 41.6474 57.5027 41.6716 57.3977C41.7651 57.1214 41.6716 56.7925 41.7892 56.5134C42.1873 56.4498 42.0486 55.9606 41.8344 55.5654H37.8442C37.7282 55.7369 37.6408 55.9231 37.5848 56.1182C37.5155 56.4056 37.5154 56.6819 37.4702 56.9583C37.4068 57.1762 37.3904 57.4034 37.4219 57.6271L37.3978 57.6658C37.2319 57.5608 29.7852 57.6464 29.6224 57.6658C29.553 57.6658 24.9686 60.4681 23.0895 61.6067C22.6401 61.8831 22.3596 62.06 22.2902 62.1014C22.2042 61.8793 22.1494 61.6481 22.1274 61.4133C22.4329 61.1861 22.7543 60.9774 23.0895 60.7887C24.5221 59.885 27.1069 58.3788 27.1069 58.3014C27.3181 58.2821 29.1066 57.1214 29.1488 57.1214C29.2746 56.9974 29.4407 56.9141 29.6224 56.8837L30.1381 56.8616C32.1589 56.903 34.2249 56.903 36.3874 56.8616C36.689 56.8174 36.5261 56.5161 36.6679 56.4305C36.6777 56.2072 36.734 55.9877 36.8338 55.7838C36.8517 55.7102 36.8833 55.6401 36.9273 55.5765H10.2139V73.6285C10.7085 72.7248 11.366 71.6691 11.9753 71.6056C12.2769 71.5862 12.5785 71.6497 12.8801 71.6304C12.9947 71.6056 15.4136 70.08 15.5946 69.9059C15.7307 69.738 15.849 69.5585 15.9474 69.3698C16.3003 68.8723 16.9819 68.8309 17.546 68.6816C18.297 68.4661 19.2108 68.3141 19.9166 68.035C20.2499 67.8601 20.5649 67.6575 20.8576 67.4297C21.5875 66.9571 22.3355 66.4403 23.0895 65.9456C23.7953 65.4951 24.5221 65.0419 25.249 64.6329C25.3908 64.5472 25.626 64.4809 25.6713 64.3095C25.7393 64.0075 25.8774 63.7224 26.0762 63.4735C26.275 63.2246 26.5298 63.0177 26.8234 62.867C28.0932 62.1125 29.5982 61.919 29.74 61.8334C29.7611 61.814 30.8197 60.6726 31.0067 60.4985C31.055 60.4571 31.1485 60.3907 31.1696 60.3272C31.1907 60.2636 30.4668 59.9403 30.3251 59.896C30.1833 59.8518 29.9963 60.0895 29.8546 60.0895C29.8094 60.0895 27.5292 61.101 27.2487 61.2309C26.6508 61.4118 26.1046 61.7131 25.6502 62.1125C25.4149 62.3087 25.1103 62.4579 24.8992 62.6652C25.0689 62.2041 25.2642 61.7512 25.4843 61.3083L27.882 60.2028C28.3737 60.0094 30.2316 59.0974 30.3492 59.125L32.7621 59.7081V59.7523C32.3851 60.095 30.3492 62.3971 30.2226 62.4855C30.1408 62.5138 30.0519 62.5205 29.9662 62.5049C29.2181 62.5994 28.4856 62.7786 27.7856 63.0383C27.4664 63.1692 27.1842 63.3652 26.9604 63.6114C26.7366 63.8577 26.5773 64.1475 26.4947 64.4588C26.4253 64.6771 26.1659 64.8263 25.9337 64.9784C25.5325 65.2354 24.3321 66.034 23.0895 66.8079C21.6327 67.7309 20.1277 68.6595 19.799 68.7424C19.2591 68.9165 17.5218 69.2371 17.1901 69.4306C16.7919 69.6682 16.7708 69.8175 16.4873 70.0993C15.7122 70.829 14.0202 71.542 13.1274 72.2301C12.9163 72.2301 12.681 72.2495 12.4699 72.2301C12.3764 72.2301 12.307 72.1859 12.1864 72.208C11.9511 72.2716 11.4143 73.178 10.9407 74.0154H12.6026C13.0942 73.5843 13.5074 73.1864 13.5647 73.1864C14.2464 72.863 14.9732 72.6336 15.676 72.3572C17.0362 71.7327 18.4477 71.2518 19.8322 70.6549C20.1534 70.4709 20.5148 70.3539 20.8908 70.3122C20.984 70.3218 21.0781 70.3218 21.1713 70.3122C21.829 70.1021 22.4725 69.8567 23.0985 69.577C24.9293 68.8475 27.4689 67.7724 28.0298 67.5541C28.3134 67.4463 30.2165 66.6503 30.2859 66.6503H34.8613C34.5149 66.8857 34.1533 67.1016 33.7785 67.2971C33.2628 67.5734 33.4498 67.4905 33.3351 67.8995C33.308 67.9437 30.5845 69.6434 30.2557 69.8589C29.7128 70.2237 29.0342 69.8368 28.8683 70.3757C28.7054 70.5913 28.3526 72.1831 28.3043 72.2909C28.2802 72.5922 28.5396 73.5401 28.4913 73.6478C28.3431 73.7926 28.1724 73.9165 27.9846 74.0154H44.5731V66.2441C44.3368 66.1391 44.0942 66.0468 43.8462 65.9678C43.4647 65.9285 43.0807 65.9138 42.6971 65.9235C42.0395 65.9456 41.3338 65.9899 40.7939 65.9899C40.5828 65.9899 40.0157 67.0234 39.8529 67.1506C39.4065 67.4518 38.8184 67.6453 38.3448 67.905C36.3693 69.0105 34.3244 69.9501 32.3519 71.0252C31.6703 71.3927 29.7912 72.921 29.5349 73.0288C29.6194 72.649 29.7292 72.2743 29.8636 71.9068C29.9089 71.8018 30.0265 71.7603 30.12 71.6719C30.7232 71.1578 31.1997 70.6604 31.9538 70.29C34.1555 69.1487 36.3663 68.0321 38.5409 66.8687C38.8003 66.7167 39.0567 66.6089 39.1441 66.3519C39.4223 66.0593 39.6802 65.751 39.9162 65.4288C39.9645 65.2962 39.7775 65.2962 39.681 65.2547C39.0777 65.0613 38.5318 64.8015 37.8985 64.5887C36.9936 64.2874 36.1099 63.8978 35.2443 63.5523C35.6424 63.2096 35.5459 63.2953 36.0195 63.229C36.5502 63.1908 37.0832 63.1843 37.615 63.2096C37.7326 63.2096 39.494 64.6301 39.7051 64.8236C39.8469 64.9314 39.9162 65.0834 40.1062 65.1248C40.5767 65.2326 41.6565 65.1469 42.7393 65.1027C43.3495 65.0784 43.9607 65.0858 44.57 65.1248C44.5817 65.137 44.5978 65.1449 44.6153 65.1469V64.1133L42.7091 63.8674L41.7198 63.7016ZM23.8164 62.972L23.0895 63.4666L21.8439 64.2958C21.7985 64.0534 21.7985 63.8057 21.8439 63.5634C22.2365 63.2761 22.6529 63.0174 23.0895 62.7896C23.4282 62.5766 23.7807 62.3828 24.1452 62.2092L23.8164 62.972Z" fill="#757575"/>
<path d="M27.6827 73.9302C27.728 73.5627 27.351 72.7474 27.3992 72.5097C27.541 71.8631 27.915 69.4946 29.0008 69.4946C29.1848 69.4946 29.3506 69.5388 29.5135 69.5388C29.6764 69.5388 32.3094 67.6651 32.5688 67.4081C32.4512 67.2781 30.5481 67.3417 30.2434 67.3417C27.6224 68.4196 25.2699 69.4753 23.0893 70.3568C22.4076 70.6332 21.726 70.893 21.0896 71.1307C20.9026 71.2191 20.7609 71.1307 20.598 71.1307C20.3868 71.1555 14.1617 73.5848 13.8782 73.7561C13.7791 73.8375 13.6855 73.9243 13.5977 74.0159H27.7733C27.7642 73.9717 27.74 73.9302 27.6827 73.9302Z" fill="#757575"/>
<path d="M61.302 56.8447H52.0215V66.7275H61.302C61.302 66.7275 63.0873 66.5119 63.2986 65.0886V58.7323C63.2986 56.8447 61.302 56.8447 61.302 56.8447ZM60.6988 64.3065H54.5821V59.1496H60.6928L60.6988 64.3065Z" fill="#393939"/>
<path d="M90.4141 56.8447H82.7531C82.7531 56.8447 80.7354 56.8447 80.7354 58.7406V65.1328C80.9466 66.5534 82.566 66.7275 82.566 66.7275H90.3658C90.3658 66.7275 92.2236 66.5534 92.4349 65.1328V58.7406C92.4319 56.8447 90.4141 56.8447 90.4141 56.8447ZM89.6118 64.3065H83.477L83.4559 59.1413H89.6087L89.6118 64.3065Z" fill="#393939"/>
<path d="M101.927 62.2259C101.927 62.2259 104.865 58.4591 105.664 57.6438C106.403 56.6821 108.514 56.2841 108.514 57.9671V66.7279H105.884V61.8611L101.906 66.7279L98.0031 61.8832V66.7279H95.3701V57.9865C95.3701 56.3062 97.4814 56.6959 98.2139 57.6631C98.965 58.4812 101.927 62.2259 101.927 62.2259Z" fill="#393939"/>
<path d="M117.259 62.8727H123.18V58.7273C123.18 56.8535 121.159 56.8535 121.159 56.8535H113.498C113.498 56.8535 111.48 56.8535 111.48 58.7273V65.0891C111.691 66.5124 113.335 66.728 113.335 66.728H123.18V64.3153H114.165V62.8727H117.259ZM114.165 59.1501H120.32V60.59H114.165V59.1501Z" fill="#393939"/>
<path d="M77.0661 62.5295L76.7854 62.3968C78.5471 60.8492 77.8172 56.9525 75.4916 56.8447H66.2354V66.7468H68.7959V63.1099H74.9518V66.7468H77.6301V63.494C77.6301 62.98 77.0661 62.5295 77.0661 62.5295ZM73.9175 60.6116H68.7748V59.1689H73.9175C74.9971 59.086 75.3351 60.5259 73.9175 60.6116Z" fill="#393939"/>
<path d="M181.218 64.2295C181.23 64.6365 181.12 65.0387 180.901 65.3931C180.682 65.7475 180.363 66.0407 179.976 66.2414C179.185 66.6646 178.281 66.8762 177.367 66.8521C176.161 66.8521 175.188 66.5564 174.45 65.965C173.712 65.3736 173.349 64.5261 173.359 63.4225H173.711C173.688 63.8537 173.766 64.2845 173.938 64.6862C174.111 65.0879 174.375 65.4513 174.713 65.7522C175.05 66.0215 175.443 66.2263 175.868 66.3547C177.137 66.71 178.507 66.6031 179.692 66.0562C180.046 65.8771 180.34 65.6122 180.541 65.2905C180.742 64.9689 180.843 64.6028 180.832 64.2322C180.832 63.3607 180.219 62.7279 178.992 62.3336C177.901 62.0867 176.762 61.803 175.576 61.4824C174.341 61.0623 173.723 60.3678 173.723 59.3986C173.716 59.0233 173.817 58.653 174.018 58.3259C174.219 57.9988 174.512 57.727 174.867 57.5387C175.591 57.156 176.417 56.9647 177.252 56.986C178.371 56.986 179.243 57.2098 179.861 57.6548C180.2 57.9118 180.462 58.2425 180.624 58.6165C180.806 59.0404 180.896 59.4931 180.887 59.9486H180.552C180.562 59.546 180.491 59.1451 180.344 58.7658C180.214 58.4428 179.988 58.1594 179.692 57.9477C179.111 57.5147 178.307 57.2983 177.279 57.2983C176.544 57.2842 175.817 57.4441 175.168 57.7626C174.836 57.9163 174.559 58.1544 174.371 58.4485C174.183 58.7425 174.091 59.0801 174.107 59.4208C174.107 60.2554 174.723 60.8615 175.955 61.2392L177.644 61.6455C178.312 61.8057 178.885 61.9513 179.364 62.0821C180.602 62.4948 181.22 63.2106 181.218 64.2295Z" fill="#757575" stroke="#757575" stroke-width="0.7"/>
<path d="M191.197 66.6118H190.865V60.9214C190.865 59.7718 190.605 58.8929 190.096 58.2794C189.515 57.5719 188.618 57.2173 187.406 57.2154C186.825 57.2028 186.249 57.3134 185.723 57.5388C185.22 57.7787 184.794 58.1338 184.486 58.5696C184.191 58.9789 183.969 59.4285 183.828 59.9016C183.669 60.4421 183.59 61 183.596 61.5599V66.6118H183.273V53.4624H183.596V59.57C183.766 59.1837 183.976 58.8135 184.224 58.4646C184.44 58.1542 184.705 57.8749 185.011 57.6355C185.679 57.1315 186.523 56.8673 187.387 56.8921C188.63 56.8921 189.577 57.2292 190.229 57.9036C190.56 58.248 190.809 58.6517 190.962 59.0892C191.131 59.5957 191.211 60.1237 191.2 60.6534L191.197 66.6118Z" fill="#757575" stroke="#757575" stroke-width="0.7"/>
<path d="M212.311 61.8669C212.311 63.3132 211.968 64.4841 211.28 65.3795C210.483 66.3983 209.324 66.9078 207.802 66.9078C206.885 66.9214 205.991 66.6419 205.275 66.1174C204.545 65.589 204.003 64.8745 203.715 64.064V69.7626H203.414V57.5391H203.715V59.949C203.879 59.5061 204.094 59.0808 204.358 58.6805C204.581 58.3429 204.863 58.0413 205.193 57.7878C205.932 57.2333 206.869 56.9488 207.823 56.9891C209.313 56.9891 210.459 57.4682 211.262 58.4262C211.623 58.8743 211.891 59.3804 212.049 59.9186C212.233 60.554 212.322 61.2095 212.311 61.8669ZM211.98 61.9028C211.98 60.5708 211.663 59.4967 211.029 58.6805C210.293 57.7408 209.231 57.271 207.841 57.271C207.222 57.2553 206.608 57.3828 206.057 57.6416C205.506 57.9005 205.034 58.2825 204.687 58.7523C204.361 59.1991 204.115 59.6908 203.96 60.2088C203.789 60.7982 203.706 61.4063 203.715 62.0162C203.681 63.1318 204.034 64.2285 204.726 65.1474C205.063 65.6127 205.524 65.9915 206.066 66.2478C206.607 66.5041 207.211 66.6295 207.82 66.6121C208.446 66.6239 209.065 66.5018 209.63 66.2556C210.174 65.998 210.637 65.6175 210.975 65.1501C211.634 64.2952 211.97 63.2128 211.98 61.9028Z" fill="#757575" stroke="#757575" stroke-width="0.7"/>
<path d="M169.344 61.3525V62.1124H160.748C160.699 63.2258 161.067 64.321 161.791 65.216C162.531 66.117 163.586 66.5684 164.955 66.5702C165.913 66.5973 166.846 66.2889 167.564 65.7079C168.288 65.0973 168.756 64.2743 168.889 63.381H169.244C169.078 64.3263 168.585 65.1979 167.839 65.8682C167.454 66.2019 167.002 66.4627 166.507 66.6358C166.012 66.8089 165.485 66.8908 164.955 66.877C164.293 66.8979 163.635 66.7724 163.036 66.5113C162.438 66.2501 161.917 65.8608 161.517 65.3763C161.139 64.9084 160.852 64.385 160.667 63.8287C160.469 63.2133 160.376 62.574 160.389 61.9328C160.389 60.5234 160.769 59.3654 161.529 58.4589C161.923 57.9865 162.435 57.6074 163.022 57.3535C163.643 57.0884 164.321 56.9534 165.006 56.9583C165.608 56.9438 166.206 57.0555 166.753 57.285C167.3 57.5144 167.783 57.8555 168.165 58.2821C168.96 59.1356 169.381 60.2302 169.344 61.3525ZM168.991 61.463C169.003 60.4308 168.628 59.4259 167.929 58.6165C167.586 58.2027 167.147 57.8631 166.644 57.6216C166.143 57.3908 165.588 57.275 165.028 57.2844C164.418 57.2585 163.81 57.3658 163.254 57.5974C162.698 57.829 162.21 58.1783 161.831 58.6165C161.467 59.0388 161.192 59.5183 161.016 60.0314C160.83 60.5977 160.74 61.1867 160.748 61.7781H168.97L168.991 61.463Z" fill="#757575" stroke="#757575" stroke-width="0.7"/>
<path d="M202.252 61.7919C202.252 62.6665 201.969 63.5214 201.438 64.2486C200.908 64.9757 200.155 65.5425 199.273 65.8771C198.391 66.2118 197.421 66.2994 196.485 66.1288C195.549 65.9582 194.689 65.537 194.014 64.9186C193.339 64.3002 192.879 63.5123 192.693 62.6546C192.507 61.7968 192.603 60.9077 192.968 60.0998C193.333 59.2918 193.951 58.6012 194.745 58.1153C195.539 57.6294 196.472 57.3701 197.426 57.3701C198.706 57.3701 199.933 57.836 200.838 58.6652C201.743 59.4945 202.252 60.6192 202.252 61.7919Z" fill="#757575"/>
<path d="M200.443 61.2475L199.502 63.8039H195.578L194.161 60.6423L192.369 58.8984" stroke="white" stroke-width="2" stroke-linecap="round" stroke-linejoin="round"/>
<path d="M196.854 64.542C196.854 64.5966 196.837 64.6501 196.804 64.6955C196.771 64.7409 196.724 64.7764 196.669 64.7973C196.615 64.8182 196.555 64.8237 196.497 64.813C196.439 64.8024 196.385 64.776 196.344 64.7374C196.302 64.6987 196.273 64.6495 196.262 64.5959C196.25 64.5423 196.256 64.4867 196.279 64.4362C196.301 64.3857 196.34 64.3425 196.389 64.3122C196.438 64.2818 196.496 64.2656 196.555 64.2656C196.635 64.2656 196.71 64.2947 196.766 64.3466C196.823 64.3984 196.854 64.4687 196.854 64.542Z" fill="#757575" stroke="white" stroke-width="2"/>
<path d="M198.863 64.542C198.863 64.5966 198.846 64.6501 198.813 64.6955C198.78 64.7409 198.734 64.7764 198.679 64.7973C198.625 64.8182 198.564 64.8237 198.506 64.813C198.448 64.8024 198.395 64.776 198.353 64.7374C198.311 64.6987 198.283 64.6495 198.271 64.5959C198.26 64.5423 198.265 64.4867 198.288 64.4362C198.311 64.3857 198.349 64.3425 198.399 64.3122C198.447 64.2818 198.505 64.2656 198.565 64.2656C198.644 64.2656 198.72 64.2947 198.776 64.3466C198.832 64.3984 198.863 64.4687 198.863 64.542Z" fill="#757575" stroke="white" stroke-width="2"/>
<path d="M195.335 61.6123H199.587" stroke="white" stroke-linecap="round"/>
<path d="M195.772 62.7422H199.157" stroke="white" stroke-linecap="round"/>
</svg>
