<svg width="31" height="30" viewBox="0 0 31 30" fill="none" xmlns="http://www.w3.org/2000/svg">
<path d="M15.3088 26.5814L15.125 26.5439L14.9412 26.5814C11.97 27.1751 9.16625 26.8439 7.11625 25.2064C5.08 23.5751 3.5625 20.4664 3.5625 15.0001C3.5625 9.40886 4.8225 7.13761 6.48125 6.30761C7.35 5.87386 8.4725 5.74761 9.9 5.91136C11.3263 6.07636 12.9725 6.52136 14.8287 7.14011L15.1537 7.24761L15.4725 7.12011C18.575 5.88011 21.3638 5.40386 23.3225 6.31886C25.16 7.17511 26.6875 9.49136 26.6875 15.0001C26.6875 20.4676 25.1712 23.5751 23.1337 25.2051C21.0837 26.8451 18.28 27.1764 15.3088 26.5814Z" stroke="#8F1919" stroke-width="2"/>
<path d="M15.125 6.875C15.125 3.75 13.875 2.5 11.375 2.5" stroke="#8F1919" stroke-width="2" stroke-linecap="round" stroke-linejoin="round"/>
<path d="M16.6958 10C17.5668 10 18.0023 10.5928 18.0023 11.2721C18.0023 12.1203 17.2457 12.9048 16.2609 12.9048C15.4361 12.9048 14.9551 12.4174 14.9778 11.6114C14.9778 10.9334 15.5505 10 16.6958 10ZM14.0158 23C13.3281 23 12.8244 22.5762 13.3054 20.7094L14.0945 17.3996C14.2317 16.8705 14.2544 16.6579 14.0945 16.6579C13.8885 16.6579 12.9966 17.0232 12.4682 17.384L12.125 16.812C13.7968 15.3911 15.7201 14.5584 16.5457 14.5584C17.2327 14.5584 17.3471 15.3859 17.0039 16.6579L16.0998 20.1368C15.9399 20.751 16.0081 20.9629 16.1687 20.9629C16.3747 20.9629 17.0507 20.7081 17.715 20.1783L18.105 20.7074C16.4787 22.363 14.7022 23 14.0158 23Z" fill="#8F1919"/>
</svg>
