<svg width="31" height="30" viewBox="0 0 31 30" fill="none" xmlns="http://www.w3.org/2000/svg">
<path d="M22.4463 20.8214L17.1425 26.1251C16.6737 26.5934 16.0382 26.8565 15.3756 26.8565C14.713 26.8565 14.0775 26.5934 13.6088 26.1251L8.30375 20.8214C6.90528 19.4228 5.95292 17.641 5.56711 15.7012C5.1813 13.7614 5.37937 11.7508 6.13626 9.92354C6.89315 8.0963 8.17488 6.53455 9.81936 5.43576C11.4638 4.33696 13.3972 3.75049 15.375 3.75049C17.3528 3.75049 19.2862 4.33696 20.9307 5.43576C22.5751 6.53455 23.8569 8.0963 24.6138 9.92354C25.3706 11.7508 25.5687 13.7614 25.1829 15.7012C24.7971 17.641 23.8447 19.4228 22.4463 20.8214Z" stroke="#197A8F" stroke-width="2" stroke-linecap="round" stroke-linejoin="round"/>
<path d="M11.625 13.75C11.625 14.7446 12.0201 15.6984 12.7233 16.4017C13.4266 17.1049 14.3804 17.5 15.375 17.5C16.3696 17.5 17.3234 17.1049 18.0267 16.4017C18.7299 15.6984 19.125 14.7446 19.125 13.75C19.125 12.7554 18.7299 11.8016 18.0267 11.0983C17.3234 10.3951 16.3696 10 15.375 10C14.3804 10 13.4266 10.3951 12.7233 11.0983C12.0201 11.8016 11.625 12.7554 11.625 13.75Z" stroke="#197A8F" stroke-width="2" stroke-linecap="round" stroke-linejoin="round"/>
</svg>
