<svg width="31" height="30" viewBox="0 0 31 30" fill="none" xmlns="http://www.w3.org/2000/svg">
<g clip-path="url(#clip0_214_2521)">
<path d="M26.1248 9.74984C24.9582 4.83317 20.6248 1.4165 15.6248 1.4165C9.62484 1.4165 4.7915 6.24984 4.7915 12.2498C4.7915 17.9165 9.20817 22.5832 14.7915 22.9998V27.1665C14.7915 27.6665 15.1248 27.9998 15.6248 27.9998C16.1248 27.9998 16.4582 27.6665 16.4582 27.1665V15.2498L20.3748 11.3332C20.7082 10.9998 20.7082 10.4998 20.3748 10.1665C20.0415 9.83317 19.5415 9.83317 19.2082 10.1665L16.4582 12.9998V10.4998L13.7082 7.74984C13.3748 7.4165 12.8748 7.4165 12.5415 7.74984C12.2082 8.08317 12.2082 8.58317 12.5415 8.9165L14.7915 11.1665V16.3332L11.6248 13.1665C11.2915 12.8332 10.7915 12.8332 10.4582 13.1665C10.1248 13.4998 10.1248 13.9998 10.4582 14.3332L14.7915 18.6665V21.3332C10.1248 20.9165 6.45817 16.9998 6.45817 12.2498C6.45817 7.1665 10.5415 3.08317 15.6248 3.08317C20.7082 3.08317 24.7915 7.1665 24.7915 12.2498C24.7915 16.3332 22.0415 19.9165 18.1248 21.0832V22.8332C23.9582 21.4165 27.5415 15.5832 26.1248 9.74984Z" fill="#197A8F" stroke="#197A8F" stroke-width="0.4"/>
</g>
<defs>
<clipPath id="clip0_214_2521">
<rect width="30" height="30" fill="white" transform="translate(0.625)"/>
</clipPath>
</defs>
</svg>
