<svg width="31" height="30" viewBox="0 0 31 30" fill="none" xmlns="http://www.w3.org/2000/svg">
<g clip-path="url(#clip0_214_2507)">
<path d="M26.1248 9.75008C24.9582 4.83341 20.6248 1.41675 15.6248 1.41675C9.62484 1.41675 4.7915 6.25008 4.7915 12.2501C4.7915 17.9167 9.20817 22.5834 14.7915 23.0001V27.1667C14.7915 27.6667 15.1248 28.0001 15.6248 28.0001C16.1248 28.0001 16.4582 27.6667 16.4582 27.1667V15.2501L20.3748 11.3334C20.7082 11.0001 20.7082 10.5001 20.3748 10.1667C20.0415 9.83341 19.5415 9.83341 19.2082 10.1667L16.4582 13.0001V10.5001L13.7082 7.75008C13.3748 7.41675 12.8748 7.41675 12.5415 7.75008C12.2082 8.08342 12.2082 8.58341 12.5415 8.91675L14.7915 11.1667V16.3334L11.6248 13.1667C11.2915 12.8334 10.7915 12.8334 10.4582 13.1667C10.1248 13.5001 10.1248 14.0001 10.4582 14.3334L14.7915 18.6667V21.3334C10.1248 20.9167 6.45817 17.0001 6.45817 12.2501C6.45817 7.16675 10.5415 3.08341 15.6248 3.08341C20.7082 3.08341 24.7915 7.16675 24.7915 12.2501C24.7915 16.3334 22.0415 19.9167 18.1248 21.0834V22.8334C23.9582 21.4167 27.5415 15.5834 26.1248 9.75008Z" fill="#8F1919" stroke="#8F1919" stroke-width="0.4"/>
</g>
<defs>
<clipPath id="clip0_214_2507">
<rect width="30" height="30" fill="white" transform="translate(0.625)"/>
</clipPath>
</defs>
</svg>
